<mxfile host="app.diagrams.net" modified="2020-03-23T02:23:34.200Z" agent="Mozilla/5.0 (Windows NT 10.0; Win64; x64) AppleWebKit/537.36 (KHTML, like Gecko) Chrome/80.0.3987.149 Safari/537.36" etag="_IFSJPD7KpBCp_zAAx-Y" version="12.8.8" type="github">
  <diagram id="162ahH6TOwHkFFG7bQDZ" name="Page-1">
    <mxGraphModel dx="1673" dy="896" grid="1" gridSize="10" guides="1" tooltips="1" connect="1" arrows="1" fold="1" page="1" pageScale="1" pageWidth="2336" pageHeight="1654" math="0" shadow="0">
      <root>
        <mxCell id="0" />
        <mxCell id="1" parent="0" />
        <mxCell id="3Qr4NYU3PoRgxUEai59K-22" style="edgeStyle=orthogonalEdgeStyle;rounded=0;orthogonalLoop=1;jettySize=auto;html=1;exitX=1;exitY=0.5;exitDx=0;exitDy=0;entryX=0.5;entryY=1;entryDx=0;entryDy=0;" edge="1" parent="1" source="3Qr4NYU3PoRgxUEai59K-2" target="3Qr4NYU3PoRgxUEai59K-3">
          <mxGeometry relative="1" as="geometry" />
        </mxCell>
        <mxCell id="3Qr4NYU3PoRgxUEai59K-2" value="yn" style="rounded=0;whiteSpace=wrap;html=1;" vertex="1" parent="1">
          <mxGeometry y="720" width="30" height="30" as="geometry" />
        </mxCell>
        <mxCell id="3Qr4NYU3PoRgxUEai59K-45" value="" style="edgeStyle=orthogonalEdgeStyle;rounded=0;orthogonalLoop=1;jettySize=auto;html=1;entryX=0;entryY=0.5;entryDx=0;entryDy=0;" edge="1" parent="1" source="3Qr4NYU3PoRgxUEai59K-3" target="3Qr4NYU3PoRgxUEai59K-46">
          <mxGeometry relative="1" as="geometry">
            <mxPoint x="510" y="635" as="targetPoint" />
          </mxGeometry>
        </mxCell>
        <mxCell id="3Qr4NYU3PoRgxUEai59K-3" value="-" style="ellipse;whiteSpace=wrap;html=1;aspect=fixed;" vertex="1" parent="1">
          <mxGeometry x="370" y="605" width="60" height="60" as="geometry" />
        </mxCell>
        <mxCell id="3Qr4NYU3PoRgxUEai59K-9" style="edgeStyle=orthogonalEdgeStyle;rounded=0;orthogonalLoop=1;jettySize=auto;html=1;exitX=1;exitY=0.5;exitDx=0;exitDy=0;" edge="1" parent="1" source="3Qr4NYU3PoRgxUEai59K-4" target="3Qr4NYU3PoRgxUEai59K-7">
          <mxGeometry relative="1" as="geometry" />
        </mxCell>
        <mxCell id="3Qr4NYU3PoRgxUEai59K-18" style="edgeStyle=orthogonalEdgeStyle;rounded=0;orthogonalLoop=1;jettySize=auto;html=1;exitX=1;exitY=0.5;exitDx=0;exitDy=0;entryX=0;entryY=0.5;entryDx=0;entryDy=0;" edge="1" parent="1" source="3Qr4NYU3PoRgxUEai59K-4" target="3Qr4NYU3PoRgxUEai59K-16">
          <mxGeometry relative="1" as="geometry" />
        </mxCell>
        <mxCell id="3Qr4NYU3PoRgxUEai59K-25" style="edgeStyle=orthogonalEdgeStyle;rounded=0;orthogonalLoop=1;jettySize=auto;html=1;exitX=1;exitY=0.5;exitDx=0;exitDy=0;entryX=0.5;entryY=1;entryDx=0;entryDy=0;" edge="1" parent="1" source="3Qr4NYU3PoRgxUEai59K-4" target="3Qr4NYU3PoRgxUEai59K-24">
          <mxGeometry relative="1" as="geometry" />
        </mxCell>
        <mxCell id="3Qr4NYU3PoRgxUEai59K-59" style="edgeStyle=orthogonalEdgeStyle;rounded=0;orthogonalLoop=1;jettySize=auto;html=1;exitX=1;exitY=0.5;exitDx=0;exitDy=0;entryX=0;entryY=0.5;entryDx=0;entryDy=0;" edge="1" parent="1" source="3Qr4NYU3PoRgxUEai59K-4" target="3Qr4NYU3PoRgxUEai59K-8">
          <mxGeometry relative="1" as="geometry" />
        </mxCell>
        <mxCell id="3Qr4NYU3PoRgxUEai59K-4" value="un" style="rounded=0;whiteSpace=wrap;html=1;" vertex="1" parent="1">
          <mxGeometry y="520" width="120" height="30" as="geometry" />
        </mxCell>
        <mxCell id="3Qr4NYU3PoRgxUEai59K-10" style="edgeStyle=orthogonalEdgeStyle;rounded=0;orthogonalLoop=1;jettySize=auto;html=1;exitX=1;exitY=0.5;exitDx=0;exitDy=0;entryX=0;entryY=0.5;entryDx=0;entryDy=0;" edge="1" parent="1" source="3Qr4NYU3PoRgxUEai59K-5" target="3Qr4NYU3PoRgxUEai59K-7">
          <mxGeometry relative="1" as="geometry" />
        </mxCell>
        <mxCell id="3Qr4NYU3PoRgxUEai59K-5" value="wn" style="rounded=0;whiteSpace=wrap;html=1;" vertex="1" parent="1">
          <mxGeometry y="580" width="30" height="110" as="geometry" />
        </mxCell>
        <mxCell id="3Qr4NYU3PoRgxUEai59K-17" style="edgeStyle=orthogonalEdgeStyle;rounded=0;orthogonalLoop=1;jettySize=auto;html=1;exitX=1;exitY=0.5;exitDx=0;exitDy=0;entryX=0.5;entryY=0;entryDx=0;entryDy=0;" edge="1" parent="1" source="3Qr4NYU3PoRgxUEai59K-6" target="3Qr4NYU3PoRgxUEai59K-16">
          <mxGeometry relative="1" as="geometry" />
        </mxCell>
        <mxCell id="3Qr4NYU3PoRgxUEai59K-26" style="edgeStyle=orthogonalEdgeStyle;rounded=0;orthogonalLoop=1;jettySize=auto;html=1;exitX=1;exitY=0.5;exitDx=0;exitDy=0;entryX=0;entryY=0.5;entryDx=0;entryDy=0;" edge="1" parent="1" source="3Qr4NYU3PoRgxUEai59K-6" target="3Qr4NYU3PoRgxUEai59K-24">
          <mxGeometry relative="1" as="geometry" />
        </mxCell>
        <mxCell id="3Qr4NYU3PoRgxUEai59K-76" style="edgeStyle=orthogonalEdgeStyle;rounded=0;orthogonalLoop=1;jettySize=auto;html=1;exitX=0.5;exitY=0;exitDx=0;exitDy=0;entryX=0.5;entryY=0;entryDx=0;entryDy=0;" edge="1" parent="1" source="3Qr4NYU3PoRgxUEai59K-6" target="3Qr4NYU3PoRgxUEai59K-74">
          <mxGeometry relative="1" as="geometry" />
        </mxCell>
        <mxCell id="3Qr4NYU3PoRgxUEai59K-6" value="Pn" style="rounded=0;whiteSpace=wrap;html=1;" vertex="1" parent="1">
          <mxGeometry y="320" width="120" height="110" as="geometry" />
        </mxCell>
        <mxCell id="3Qr4NYU3PoRgxUEai59K-14" style="edgeStyle=orthogonalEdgeStyle;rounded=0;orthogonalLoop=1;jettySize=auto;html=1;exitX=1;exitY=0.5;exitDx=0;exitDy=0;entryX=0;entryY=0.5;entryDx=0;entryDy=0;" edge="1" parent="1" source="3Qr4NYU3PoRgxUEai59K-7" target="3Qr4NYU3PoRgxUEai59K-13">
          <mxGeometry relative="1" as="geometry" />
        </mxCell>
        <mxCell id="3Qr4NYU3PoRgxUEai59K-7" value="*(dot product)" style="ellipse;whiteSpace=wrap;html=1;aspect=fixed;" vertex="1" parent="1">
          <mxGeometry x="170" y="605" width="60" height="60" as="geometry" />
        </mxCell>
        <mxCell id="3Qr4NYU3PoRgxUEai59K-32" style="edgeStyle=orthogonalEdgeStyle;rounded=0;orthogonalLoop=1;jettySize=auto;html=1;exitX=1;exitY=0.5;exitDx=0;exitDy=0;entryX=0;entryY=0.5;entryDx=0;entryDy=0;" edge="1" parent="1" source="3Qr4NYU3PoRgxUEai59K-8" target="3Qr4NYU3PoRgxUEai59K-31">
          <mxGeometry relative="1" as="geometry" />
        </mxCell>
        <mxCell id="3Qr4NYU3PoRgxUEai59K-8" value="A*B+lambda" style="ellipse;whiteSpace=wrap;html=1;aspect=fixed;" vertex="1" parent="1">
          <mxGeometry x="550" y="505" width="60" height="60" as="geometry" />
        </mxCell>
        <mxCell id="3Qr4NYU3PoRgxUEai59K-23" style="edgeStyle=orthogonalEdgeStyle;rounded=0;orthogonalLoop=1;jettySize=auto;html=1;exitX=1;exitY=0.5;exitDx=0;exitDy=0;entryX=0;entryY=0.5;entryDx=0;entryDy=0;" edge="1" parent="1" source="3Qr4NYU3PoRgxUEai59K-13" target="3Qr4NYU3PoRgxUEai59K-3">
          <mxGeometry relative="1" as="geometry" />
        </mxCell>
        <mxCell id="3Qr4NYU3PoRgxUEai59K-13" value="yn_hat" style="rounded=0;whiteSpace=wrap;html=1;" vertex="1" parent="1">
          <mxGeometry x="290" y="620" width="30" height="30" as="geometry" />
        </mxCell>
        <mxCell id="3Qr4NYU3PoRgxUEai59K-21" style="edgeStyle=orthogonalEdgeStyle;rounded=0;orthogonalLoop=1;jettySize=auto;html=1;exitX=1;exitY=0.5;exitDx=0;exitDy=0;entryX=0;entryY=0.5;entryDx=0;entryDy=0;" edge="1" parent="1" source="3Qr4NYU3PoRgxUEai59K-16" target="3Qr4NYU3PoRgxUEai59K-20">
          <mxGeometry relative="1" as="geometry" />
        </mxCell>
        <mxCell id="3Qr4NYU3PoRgxUEai59K-16" value="*(dot product)" style="ellipse;whiteSpace=wrap;html=1;aspect=fixed;" vertex="1" parent="1">
          <mxGeometry x="240" y="405" width="60" height="60" as="geometry" />
        </mxCell>
        <mxCell id="3Qr4NYU3PoRgxUEai59K-19" value="H" style="text;html=1;strokeColor=none;fillColor=none;align=center;verticalAlign=middle;whiteSpace=wrap;rounded=0;" vertex="1" parent="1">
          <mxGeometry x="150" y="470" width="40" height="20" as="geometry" />
        </mxCell>
        <mxCell id="3Qr4NYU3PoRgxUEai59K-62" style="edgeStyle=orthogonalEdgeStyle;rounded=0;orthogonalLoop=1;jettySize=auto;html=1;exitX=1;exitY=0.5;exitDx=0;exitDy=0;" edge="1" parent="1" source="3Qr4NYU3PoRgxUEai59K-20" target="3Qr4NYU3PoRgxUEai59K-47">
          <mxGeometry relative="1" as="geometry" />
        </mxCell>
        <mxCell id="3Qr4NYU3PoRgxUEai59K-78" style="edgeStyle=orthogonalEdgeStyle;rounded=0;orthogonalLoop=1;jettySize=auto;html=1;exitX=1;exitY=0.5;exitDx=0;exitDy=0;entryX=0.5;entryY=0;entryDx=0;entryDy=0;" edge="1" parent="1" source="3Qr4NYU3PoRgxUEai59K-20" target="3Qr4NYU3PoRgxUEai59K-8">
          <mxGeometry relative="1" as="geometry" />
        </mxCell>
        <mxCell id="3Qr4NYU3PoRgxUEai59K-20" value="PuH" style="rounded=0;whiteSpace=wrap;html=1;fillColor=#f8cecc;strokeColor=#b85450;" vertex="1" parent="1">
          <mxGeometry x="370" y="380" width="30" height="110" as="geometry" />
        </mxCell>
        <mxCell id="3Qr4NYU3PoRgxUEai59K-28" style="edgeStyle=orthogonalEdgeStyle;rounded=0;orthogonalLoop=1;jettySize=auto;html=1;exitX=1;exitY=0.5;exitDx=0;exitDy=0;entryX=0;entryY=0.5;entryDx=0;entryDy=0;" edge="1" parent="1" source="3Qr4NYU3PoRgxUEai59K-24" target="3Qr4NYU3PoRgxUEai59K-27">
          <mxGeometry relative="1" as="geometry" />
        </mxCell>
        <mxCell id="3Qr4NYU3PoRgxUEai59K-24" value="*(dot product)" style="ellipse;whiteSpace=wrap;html=1;aspect=fixed;" vertex="1" parent="1">
          <mxGeometry x="470" y="345" width="60" height="60" as="geometry" />
        </mxCell>
        <mxCell id="3Qr4NYU3PoRgxUEai59K-65" style="edgeStyle=orthogonalEdgeStyle;rounded=0;orthogonalLoop=1;jettySize=auto;html=1;exitX=1;exitY=0.5;exitDx=0;exitDy=0;entryX=0;entryY=0.5;entryDx=0;entryDy=0;" edge="1" parent="1" source="3Qr4NYU3PoRgxUEai59K-27" target="3Qr4NYU3PoRgxUEai59K-64">
          <mxGeometry relative="1" as="geometry" />
        </mxCell>
        <mxCell id="3Qr4NYU3PoRgxUEai59K-27" value="uP" style="rounded=0;whiteSpace=wrap;html=1;" vertex="1" parent="1">
          <mxGeometry x="580" y="360" width="120" height="30" as="geometry" />
        </mxCell>
        <mxCell id="3Qr4NYU3PoRgxUEai59K-49" style="edgeStyle=orthogonalEdgeStyle;rounded=0;orthogonalLoop=1;jettySize=auto;html=1;exitX=1;exitY=0.5;exitDx=0;exitDy=0;entryX=0;entryY=0.5;entryDx=0;entryDy=0;" edge="1" parent="1" source="3Qr4NYU3PoRgxUEai59K-31" target="3Qr4NYU3PoRgxUEai59K-47">
          <mxGeometry relative="1" as="geometry" />
        </mxCell>
        <mxCell id="3Qr4NYU3PoRgxUEai59K-31" value="k" style="rounded=0;whiteSpace=wrap;html=1;" vertex="1" parent="1">
          <mxGeometry x="650" y="520" width="30" height="30" as="geometry" />
        </mxCell>
        <mxCell id="3Qr4NYU3PoRgxUEai59K-37" value="" style="edgeStyle=orthogonalEdgeStyle;rounded=0;orthogonalLoop=1;jettySize=auto;html=1;" edge="1" parent="1" source="3Qr4NYU3PoRgxUEai59K-33">
          <mxGeometry relative="1" as="geometry">
            <mxPoint x="370" y="150" as="targetPoint" />
          </mxGeometry>
        </mxCell>
        <mxCell id="3Qr4NYU3PoRgxUEai59K-33" value="*(dot product)" style="ellipse;whiteSpace=wrap;html=1;aspect=fixed;" vertex="1" parent="1">
          <mxGeometry x="230" y="120" width="60" height="60" as="geometry" />
        </mxCell>
        <mxCell id="3Qr4NYU3PoRgxUEai59K-34" value="" style="endArrow=classic;html=1;entryX=0;entryY=0.5;entryDx=0;entryDy=0;" edge="1" parent="1" target="3Qr4NYU3PoRgxUEai59K-33">
          <mxGeometry width="50" height="50" relative="1" as="geometry">
            <mxPoint x="180" y="150" as="sourcePoint" />
            <mxPoint x="160" y="140" as="targetPoint" />
          </mxGeometry>
        </mxCell>
        <mxCell id="3Qr4NYU3PoRgxUEai59K-35" value="" style="endArrow=classic;html=1;entryX=0.5;entryY=0;entryDx=0;entryDy=0;" edge="1" parent="1" target="3Qr4NYU3PoRgxUEai59K-33">
          <mxGeometry width="50" height="50" relative="1" as="geometry">
            <mxPoint x="260" y="80" as="sourcePoint" />
            <mxPoint x="260" y="80" as="targetPoint" />
          </mxGeometry>
        </mxCell>
        <mxCell id="3Qr4NYU3PoRgxUEai59K-38" value="B" style="text;html=1;strokeColor=none;fillColor=none;align=center;verticalAlign=middle;whiteSpace=wrap;rounded=0;" vertex="1" parent="1">
          <mxGeometry x="160" y="130" width="40" height="20" as="geometry" />
        </mxCell>
        <mxCell id="3Qr4NYU3PoRgxUEai59K-39" value="A" style="text;html=1;strokeColor=none;fillColor=none;align=center;verticalAlign=middle;whiteSpace=wrap;rounded=0;" vertex="1" parent="1">
          <mxGeometry x="230" y="70" width="40" height="20" as="geometry" />
        </mxCell>
        <mxCell id="3Qr4NYU3PoRgxUEai59K-40" value="C" style="text;html=1;strokeColor=none;fillColor=none;align=center;verticalAlign=middle;whiteSpace=wrap;rounded=0;" vertex="1" parent="1">
          <mxGeometry x="327" y="131" width="40" height="20" as="geometry" />
        </mxCell>
        <mxCell id="3Qr4NYU3PoRgxUEai59K-42" value="C=A*B" style="text;html=1;strokeColor=none;fillColor=none;align=center;verticalAlign=middle;whiteSpace=wrap;rounded=0;" vertex="1" parent="1">
          <mxGeometry x="350" y="70" width="40" height="20" as="geometry" />
        </mxCell>
        <mxCell id="3Qr4NYU3PoRgxUEai59K-51" style="edgeStyle=orthogonalEdgeStyle;rounded=0;orthogonalLoop=1;jettySize=auto;html=1;exitX=1;exitY=0.5;exitDx=0;exitDy=0;entryX=0.5;entryY=1;entryDx=0;entryDy=0;" edge="1" parent="1" source="3Qr4NYU3PoRgxUEai59K-46" target="3Qr4NYU3PoRgxUEai59K-52">
          <mxGeometry relative="1" as="geometry">
            <mxPoint x="1070" y="540" as="targetPoint" />
          </mxGeometry>
        </mxCell>
        <mxCell id="3Qr4NYU3PoRgxUEai59K-46" value="e" style="rounded=0;whiteSpace=wrap;html=1;" vertex="1" parent="1">
          <mxGeometry x="480" y="620" width="30" height="30" as="geometry" />
        </mxCell>
        <mxCell id="3Qr4NYU3PoRgxUEai59K-56" style="edgeStyle=orthogonalEdgeStyle;rounded=0;orthogonalLoop=1;jettySize=auto;html=1;exitX=1;exitY=0.5;exitDx=0;exitDy=0;entryX=0;entryY=0.5;entryDx=0;entryDy=0;" edge="1" parent="1" source="3Qr4NYU3PoRgxUEai59K-47" target="3Qr4NYU3PoRgxUEai59K-50">
          <mxGeometry relative="1" as="geometry" />
        </mxCell>
        <mxCell id="3Qr4NYU3PoRgxUEai59K-47" value="divide" style="ellipse;whiteSpace=wrap;html=1;aspect=fixed;" vertex="1" parent="1">
          <mxGeometry x="730" y="505" width="60" height="60" as="geometry" />
        </mxCell>
        <mxCell id="3Qr4NYU3PoRgxUEai59K-53" value="" style="edgeStyle=orthogonalEdgeStyle;rounded=0;orthogonalLoop=1;jettySize=auto;html=1;" edge="1" parent="1" source="3Qr4NYU3PoRgxUEai59K-50" target="3Qr4NYU3PoRgxUEai59K-52">
          <mxGeometry relative="1" as="geometry" />
        </mxCell>
        <mxCell id="3Qr4NYU3PoRgxUEai59K-66" style="edgeStyle=orthogonalEdgeStyle;rounded=0;orthogonalLoop=1;jettySize=auto;html=1;exitX=0.5;exitY=0;exitDx=0;exitDy=0;" edge="1" parent="1" source="3Qr4NYU3PoRgxUEai59K-50" target="3Qr4NYU3PoRgxUEai59K-64">
          <mxGeometry relative="1" as="geometry" />
        </mxCell>
        <mxCell id="3Qr4NYU3PoRgxUEai59K-50" value="Kn" style="rounded=0;whiteSpace=wrap;html=1;" vertex="1" parent="1">
          <mxGeometry x="991" y="480" width="30" height="110" as="geometry" />
        </mxCell>
        <mxCell id="3Qr4NYU3PoRgxUEai59K-69" style="edgeStyle=orthogonalEdgeStyle;rounded=0;orthogonalLoop=1;jettySize=auto;html=1;exitX=1;exitY=0.5;exitDx=0;exitDy=0;entryX=0;entryY=0.5;entryDx=0;entryDy=0;" edge="1" parent="1" source="3Qr4NYU3PoRgxUEai59K-52" target="3Qr4NYU3PoRgxUEai59K-57">
          <mxGeometry relative="1" as="geometry" />
        </mxCell>
        <mxCell id="3Qr4NYU3PoRgxUEai59K-52" value="*" style="ellipse;whiteSpace=wrap;html=1;aspect=fixed;" vertex="1" parent="1">
          <mxGeometry x="1051" y="505" width="60" height="60" as="geometry" />
        </mxCell>
        <mxCell id="3Qr4NYU3PoRgxUEai59K-70" style="edgeStyle=orthogonalEdgeStyle;rounded=0;orthogonalLoop=1;jettySize=auto;html=1;exitX=1;exitY=0.5;exitDx=0;exitDy=0;entryX=0;entryY=0.5;entryDx=0;entryDy=0;" edge="1" parent="1" source="3Qr4NYU3PoRgxUEai59K-57">
          <mxGeometry relative="1" as="geometry">
            <mxPoint x="1201" y="535" as="targetPoint" />
          </mxGeometry>
        </mxCell>
        <mxCell id="3Qr4NYU3PoRgxUEai59K-57" value="eKn" style="rounded=0;whiteSpace=wrap;html=1;" vertex="1" parent="1">
          <mxGeometry x="1139" y="480" width="30" height="110" as="geometry" />
        </mxCell>
        <mxCell id="3Qr4NYU3PoRgxUEai59K-72" style="edgeStyle=orthogonalEdgeStyle;rounded=0;orthogonalLoop=1;jettySize=auto;html=1;exitX=1;exitY=0.5;exitDx=0;exitDy=0;" edge="1" parent="1">
          <mxGeometry relative="1" as="geometry">
            <mxPoint x="1331" y="535" as="targetPoint" />
            <mxPoint x="1261" y="535" as="sourcePoint" />
          </mxGeometry>
        </mxCell>
        <mxCell id="3Qr4NYU3PoRgxUEai59K-68" style="edgeStyle=orthogonalEdgeStyle;rounded=0;orthogonalLoop=1;jettySize=auto;html=1;exitX=1;exitY=0.5;exitDx=0;exitDy=0;entryX=0;entryY=0.5;entryDx=0;entryDy=0;" edge="1" parent="1" source="3Qr4NYU3PoRgxUEai59K-64" target="3Qr4NYU3PoRgxUEai59K-67">
          <mxGeometry relative="1" as="geometry" />
        </mxCell>
        <mxCell id="3Qr4NYU3PoRgxUEai59K-64" value="*(dot product)" style="ellipse;whiteSpace=wrap;html=1;aspect=fixed;" vertex="1" parent="1">
          <mxGeometry x="976" y="345" width="60" height="60" as="geometry" />
        </mxCell>
        <mxCell id="3Qr4NYU3PoRgxUEai59K-75" style="edgeStyle=orthogonalEdgeStyle;rounded=0;orthogonalLoop=1;jettySize=auto;html=1;exitX=1;exitY=0.5;exitDx=0;exitDy=0;entryX=0;entryY=0.5;entryDx=0;entryDy=0;" edge="1" parent="1" source="3Qr4NYU3PoRgxUEai59K-67" target="3Qr4NYU3PoRgxUEai59K-74">
          <mxGeometry relative="1" as="geometry" />
        </mxCell>
        <mxCell id="3Qr4NYU3PoRgxUEai59K-67" value="PPn" style="rounded=0;whiteSpace=wrap;html=1;" vertex="1" parent="1">
          <mxGeometry x="1101" y="320" width="120" height="110" as="geometry" />
        </mxCell>
        <mxCell id="3Qr4NYU3PoRgxUEai59K-80" style="edgeStyle=orthogonalEdgeStyle;rounded=0;orthogonalLoop=1;jettySize=auto;html=1;exitX=1;exitY=0.5;exitDx=0;exitDy=0;entryX=0;entryY=0.5;entryDx=0;entryDy=0;" edge="1" parent="1" source="3Qr4NYU3PoRgxUEai59K-74">
          <mxGeometry relative="1" as="geometry">
            <mxPoint x="1361" y="375" as="targetPoint" />
          </mxGeometry>
        </mxCell>
        <mxCell id="3Qr4NYU3PoRgxUEai59K-74" value="-" style="ellipse;whiteSpace=wrap;html=1;aspect=fixed;" vertex="1" parent="1">
          <mxGeometry x="1271" y="345" width="60" height="60" as="geometry" />
        </mxCell>
        <mxCell id="3Qr4NYU3PoRgxUEai59K-82" style="edgeStyle=orthogonalEdgeStyle;rounded=0;orthogonalLoop=1;jettySize=auto;html=1;exitX=1;exitY=0.5;exitDx=0;exitDy=0;" edge="1" parent="1" source="3Qr4NYU3PoRgxUEai59K-81">
          <mxGeometry relative="1" as="geometry">
            <mxPoint x="1481" y="375" as="targetPoint" />
          </mxGeometry>
        </mxCell>
        <mxCell id="3Qr4NYU3PoRgxUEai59K-81" value="/lambda" style="ellipse;whiteSpace=wrap;html=1;aspect=fixed;" vertex="1" parent="1">
          <mxGeometry x="1361" y="345" width="60" height="60" as="geometry" />
        </mxCell>
        <mxCell id="3Qr4NYU3PoRgxUEai59K-85" value="+" style="ellipse;whiteSpace=wrap;html=1;aspect=fixed;" vertex="1" parent="1">
          <mxGeometry x="1210" y="665" width="60" height="60" as="geometry" />
        </mxCell>
      </root>
    </mxGraphModel>
  </diagram>
</mxfile>
